<svg width="1023" height="118" viewBox="0 0 1023 118" xmlns="http://www.w3.org/2000/svg">
  <title>
    london-skyline
  </title>
  <g fill="none" fill-rule="evenodd">
    <path d="M1022.87 100.05l-.15-17.23h-7v16.4h-3.83V79h-6.6v15.1h-5.3V82.2h-5.8v11.3h-5.3V78.34s-4.5-11.92-8.1 0v15.12h-1.1V68.13l-7.2 4.14v22.58h-3.1V72.4h-1.7v-3.84h-5.2v3.2H960V94.3h-2.75V76.54l-1.44-.1-1.6-11.18-1.7 11.28h-2.1v17.78l-2.2-.2V70.46l-4.2-7.42-3.9.08-4.7 8.07v23.5h-5V67H923v27.6h-1.8V69.4h-5.96v24.2h-.85V72.3l-5.6 1.5v19.9h-6.2V69.3l-2-3.4-2.1 3.54v23.92h-5.8V68.13h-6.4v24.8H885V65.48h-10.3V92.4h-4.1V77.3h-5.86v14.36h-.8V64.83h-6.88v27.04h-1.9v-24.8h-8.4V92.3H843v-25h-2.5v-6.77h-4.42v6.77h-3.23v25.14h-4.2V75.58h-7.12v16.94h-6.68v-23.1s-3.9-4.83-8.85-.54c.07 2.34 0 23.87 0 23.87h-1.65V72.5h-5.1l-5.16 19.3h-2.7v-8.3l-1.1-2.8-1 2.8h-5.6l-.7-2.54-1 2.52v8.25h-3.8V78.97h-4.7v12.5h-2.2V69.8H765v21.36h-4.65V66.62H753v5.27h-2.7v-6.1h-6.6V91h-1.8V75.67h-4.35v14.9h-3V70.84h-4.95v19.42h-4.95V66.32h-5.7l.3 33.58 303.6.15z" fill="#CCC"/>
    <path d="M584.14 103.4l.15-17.23h7v16.4h3.8V82.33h6.6v15.1h5.3v-11.9h5.7V96.8h5.3V81.7s4.4-11.92 8 0v15.1h1V71.5l7.1 4.13v22.6h3v-22.5h1.7V71.9h5.2v3.2h2.5v22.57h2.7V79.9l1.5-.12 1.6-11.18 1.7 11.3h2.1v17.77l2.2-.22V73.82l4.2-7.42 3.9.07 4.6 8.08V98.1h5V70.4h7.6V98h1.8V72.75h5.9V96.9h.8V75.6l5.6 1.5V97h6.2V72.67l2-3.4 2 3.53v23.9h5.8V71.5h6.4v24.8h1.3V68.82H732v26.93h4.13V80.63H742V95h.85V68.2h6.9v27.04h1.9v-24.8h8.4v25.22h3.9v-25h2.5V63.9h4.5v6.77h3.22V95.8h4.2V78.92h7.1v16.94h6.7v-23.1s3.9-4.83 8.84-.54v23.86h1.7V75.83h5.1l5.2 19.3h2.7v-8.3l1.2-2.8 1 2.8h5.6l.6-2.54 1 2.5V95h3.8V82.3h4.7v12.5h2.2V73.1h6.6v21.4h4.7V69.96h7.3v5.27h2.7V69.2h6.6v25.15h1.8V79h4.4v14.9h3V74.2h5v19.4h4.9V69.68h5.7l-.3 33.57-303.6.16z" fill="#B3B3B3"/>
    <path d="M434.54 105.2l.15-17.24h7v16.4h3.8V84.12h6.5v15.1h5.3v-11.9h5.7V98.6h5.3V83.5s4.4-11.93 8 0v15.1h1V73.28l7.1 4.13V100h3V77.52h1.7V73.7h5.2v3.2h2.6v22.56h2.7V81.68l1.5-.1 1.6-11.2 1.7 11.3h2.1v17.78l2.2-.22 2.3-26.52 3-4.52h3l3.4 4.5 1.2 27.1h5V72.2h7.5v27.58h1.8V74.55h6V98.7h.8V77.43l5.5 1.5v19.9h6.2v-24.4l2-3.4 2 3.54V98.5h5.8V73.27h6.4v24.8h1.2V70.6h10.3v26.94h4.2V82.42h5.8V96.8h.8V69.97h6.8V97h1.9V72.2h8.4v25.23h3.9v-25h2.5v-6.77h4.4v6.78h3.2v25.14h4.2V80.72h7.1v16.94h6.7v-23.1s3.9-4.83 8.8-.54c-.1 2.33 0 23.86 0 23.86h1.7V77.63h5.1l5.1 19.3h2.6v-8.3l1.1-2.8 1 2.8h5.5l.6-2.54 1 2.5v8.2h3.8V84.1h4.7v12.5h2.2V74.92h6.6V96.3h4.6V71.76h7.4v5.27h2.7V71h6.6v25.15h1.8V80.8h4.4v14.9h3V75.98h4.9V95.4h4.9V71.46h5.7l-.3 33.57-303.6.16z" fill="#CCC"/>
    <path d="M174.62 102.08l.15-17.23h7v16.4h3.82V81.02h6.5v15.12h5.3V84.22h5.7V95.5h5.3V80.38s4.4-11.92 8 0V95.5h1V70.16l7.1 4.14v22.58h3V74.42h1.7V70.6h5.2v3.18h2.6v22.57h2.8V78.57l1.5-.1L243 67.3l1.7 11.2h2.1v17.8l2.23-.2V72.5l4.27-7.42 3.9.08 4.65 8.07v23.55h5V69.1h7.54v27.57h1.8V71.44h5.9V95.6h.8V74.3l5.5 1.5v19.9h6.2V71.34l1.9-3.4 2 3.54V95.4h5.8V70.15h6.3v24.8h1.3V67.5h10.3v26.94h4.1V79.32h5.8V93.7h.8V66.85h6.9V93.9h1.9V69.1h8.4v25.23h3.9v-25h2.5v-6.77h4.4v6.77h3.2v25.15h4.2V77.6h7.1v16.95h6.6v-23.1s3.9-4.83 8.8-.54c-.1 2.4 0 23.9 0 23.9h1.8V74.6h5.1l5.2 19.3h2.8v-8.3l1.1-2.8 1 2.8h5.5l.6-2.54 1 2.5v8.25h3.8V81h4.6v12.5h2.1V71.82h6.6V93.2h4.6V68.66h7.3v5.26h2.7V67.9h6.6v25.14h1.8V77.7h4.3v14.9h3V72.86h4.9V92.3h4.9V68.34h5.7l-.3 33.58-303.6.15z" fill="#CCC"/>
    <path d="M488.94 102.2l-.15-17.24h-7v16.4h-3.9V81.13h-6.6v15.12H466V84.33h-5.73V95.6H455V80.5s-4.45-11.93-8.06 0v15.1h-1.07V70.28l-7.14 4.14V97h-3.05V74.52H434V70.7h-5.2v3.2h-2.54v22.56h-2.75V78.68l-1.5-.1-1.5-11.18-1.7 11.28h-2.1v17.78l-2.2-.2V72.6l-4.2-8.7-3.9.07-4.6 9.35V96.9h-5V69.2h-7.5v27.6h-1.8V71.55h-5.9v24.17h-.8v-21.3l-5.5 1.5v19.9H369V71.44l-1.95-3.4-2 3.54V95.5h-6V70.27h-6.35v24.8h-1.27V67.62H341v26.95h-4.13V79.43h-5.83V93.8h-.85V66.97h-6.9V94h-2V69.2H313v25.24h-3.92v-25h-2.5v-6.77h-4.43v6.77h-3.22V94.6h-4.2V77.7h-7.13v16.94h-6.68v-23.1s-3.9-4.83-8.85-.54c.08 2.34 0 23.87 0 23.87h-1.65V74.63h-5.1l-5.15 19.3h-2.65v-8.3l-1.13-2.8-1 2.8h-5.6l-.7-2.54-1 2.5v8.2h-3.8V81.1h-4.7v12.5h-2.2V71.94H231V93.3h-4.66V68.78H219v5.27h-2.7V68h-6.6v25.16H208V77.8h-4.34v14.9h-3V72.98h-4.95V92.4h-4.9V68.47h-5.7l.3 33.57 303.6.16z" fill="#E6E6E6"/>
    <path d="M70.73 105.5l.15-17.22h7v16.4h3.82V84.43h6.58v15.12h5.3v-11.9h5.73V98.9h5.4V83.8s4.5-11.94 8.1 0v15.1h1.1V73.6l7.2 4.12v22.6h3v-22.5h1.7V74h5.2v3.2h2.6v22.57h2.8V82l1.5-.1 1.5-11.2L141 82h2.13v17.77l2.2-.2V75.92l4.26-7.42 3.9.08 4.6 8.08v23.54h5V72.52h7.5v27.57h1.8V74.8h5.9V99h.8V77.7l5.6 1.5v19.9h6.2V74.78l2-3.4 2 3.52v23.9h5.7V73.6h6.4v24.8h1.3V70.9h10.3v26.94h4.1v-15.1h5.8V97.1h.8V70.3h6.9v27.03h1.9v-24.8h8.4v25.22h3.9v-25h2.5V66h4.5v6.78h3.2V97.9h4.2V81.04h7.1v16.93h6.6v-23.1s3.9-4.82 8.8-.53V98.2h1.7V77.95h5.1l5.2 19.3h2.7v-8.3l1.1-2.8.9 2.8h5.6l.6-2.54 1 2.6v8.3h3.8V84.4h4.6v12.5h2.1V75.24h6.6v21.38h4.7V72.08h7.3v5.27h2.7v-6.02h6.6v25.14h1.8V81.1h4.3v14.92h3V76.3h5v19.4h5V71.78h5.7l-.3 33.57-303.6.16z" fill="#B3B3B3"/>
    <path d="M.33 70.88h6.02v24.8h1.28V68.2h10.3v26.95h4.13V80.03h5.83V94.4h.8V67.58h6.9v27.04h1.9v-24.8h8.4v25.22h3.9v-25h2.5v-6.77h4.4v6.78H60V95.2h4.2V78.32h7.13v16.93H78v-23.1s3.9-4.82 8.85-.53c-.07 2.33 0 23.86 0 23.86h1.66V75.23h5.1l5.2 19.3h2.7v-8.3l1.2-2.8 1 2.8h5.6l.7-2.54 1 2.5v8.2h3.8V81.7h4.7v12.5h2.2V72.54h6.6V93.9h4.7V69.38h7.3v5.27h2.7v-6.02h6.6v25.14h1.8V78.4h4.4v14.9h3V73.6h5V93h5V69.08h5.7l-.3 33.57-173.2.1" fill="#4D4D4D"/>
    <path d="M189.72 70.9h-6.03v24.8h-1.3V68.26h-10.3V95.2H168V80.1h-5.84v14.35h-.85V67.6h-6.9v27.05h-1.9v-24.8h-8.3v25.23h-3.9v-25h-2.5V63.3h-4.4v6.78h-3.2v25.14H126V78.36h-7.15V95.3h-6.7V72.2s-3.9-4.83-8.83-.54c.07 2.33 0 23.86 0 23.86h-1.66V75.27h-5.1l-5.15 19.3h-2.7v-8.3l-1.1-2.8-.9 2.8H81l-.65-2.54-.98 2.52v8.26h-3.75V81.8h-4.65v12.5h-2.14V72.6h-6.6V94h-4.65V69.4h-7.35v5.27h-2.7v-6.02h-6.6V93.8h-1.8V78.43h-4.35v14.9h-3v-19.7h-4.95v19.4h-4.96V69.1h-5.7l.3 33.57 173.25.1" fill="#B3B3B3"/>
    <path d="M810.25 98.78h1.72V71.1h7.53v27.57h1.8V73.44h5.95V97.6h.85V76.3l5.57 1.5v19.9h6.2V73.34l1.96-3.4 2.03 3.54V97.4h5.77V72.15H856v24.8h1.27V69.5h10.3v26.93h4.13v-15.1h5.83V95.7h.85V68.84h6.9V95.9h1.9V71.1h8.4v25.23h3.9v-25h2.5v-6.77h4.44v6.77h3.22v25.14h4.2V79.6h7.13v16.95h6.68v-23.1s3.9-4.83 8.85-.54c-.08 2.4 0 23.9 0 23.9h1.65V76.6h5.1l5.15 19.3h2.65v-8.3l1.13-2.8.97 2.8h5.55l.64-2.55 1 2.53v8.3h3.73V83h4.65v12.5h2.14V73.8h6.6v21.4h4.65V70.64h7.4v5.27h2.7v-6h6.6v25.2h1.8V79.7h4.4v14.9h3V74.86h5V94.3h5V70.34h5.7l-.3 33.58-212.9.1m-470.1-10v-40.6c0-1.9 2.6-6.47 5.9-6.55 3.5-.08 6.1 4.77 6.2 6.56V93.8l-12 .23z" fill="#999"/>
    <path fill="#CCC" d="M450.3 29.96L453.82 41v54.37l-15.48.15V40.4l3.42-10.13 4.33-7.02 4.2 6.7m8.9 56.88V38.78h3.2v3.1h7.6v-3.12h3V86.8l-13.9.03"/>
    <path fill="#ECECEC" d="M976.77 94l.1-54.7-12.3 7.7v47h12.2"/>
    <path fill="#F2F2F2" d="M992.84 56.76l2 6.27v30.85l-8.77.08V62.68l1.94-5.74 2.5-3.98 2.4 3.8"/>
    <path d="M0 94.4h1022.9v21.1H0z" fill-rule="nonzero" fill="#333"/>
    <g stroke="#000" fill="#000" fill-rule="nonzero">
      <path d="M67.94 93.77l.97-.07 3.3.45c.6.15.9.5 1.4.68l1.3.14c.4.1 1.6.9 1.9 1.2.4.34 1 1.45 1.1 1.9 0 .46-.3.96 0 1.3.4.34.9.12 1.5.43.5.27.7.75 1.1 1.17.6.65 1.5 1.22 1.5 2.2-.1 1.27-2.5.7-3 1.94-.4 1.1 2.3.9 1.9 2.2-.3 1-1.8.8-2.5 1.1l-1.8 1c-.4.2-.9.6-1.4.3-.8-.5-.6-1.5-.8-1.9-.1-.4-.5-.7-.9-.9-.2-.1-.6-.3-.9-.2-.5.3-1.2 1.3-1.3 1.9l-.7 3.6c-.1.5.1 1.1.1 1.6 0 .3 0 .7-.2 1-.5.2-.8.3-1.3-.1-.3-.6.1-.9.2-1.6.1-.8.2-2.1.1-3v-1l-.1-.7-.2-.4c-.8-1.3-2 .6-2.5.9-.3.1-.5.1-.8.1-.4 0-1.1-.1-1.4-.4-.4-.2-.7-.6-1.1-.7-.7-.1-2.5 1.3-2.7-.1v-.4c.1-.7.2-1.4-.1-2.1-.4-.8-.6-.3-1.4-2.1-.1-.2-.3-.5-.3-.8-.1-1 1.4-1.5 1.7-2.2.2-.4 0-.7 0-1.1-.1-.4.1-1.2.3-1.6.2-.4.6-.6.9-1 .3-.4.4-.9.9-1.1.5-.2.9 0 1.5-.4s.9-.9 1.7-1.3c1.1-.2 2 .3 2.8.4z" stroke-width=".14"/>
      <path d="M343.3 88.42c.83.08 1.28-.37 2.05.27.36.3.9.9 1.1 1.3.2.5.25 1.3.8 1.6.73.4 1.1-1 2.05-.7.7.2.68 1 .67 1.6-.04 1.8-1.27 3.3-1.1 4.5.13 1 1.63 1.2 1.55 2.5-.05.8-.84.9-1.74 1.8-1.02 1-1.4 1.9-1.94 3.2-.17.3-.38 1.2-.63 1.5-.4.4-1.1 0-1.8.2-.5.1-.7.6-1.1.8-.8.5-2.7.6-3.2 1.6-.1.4 0 2 0 2.5 0 .4 0 1.2-.2 1.5-.1.2-.2.3-.4.3-.7 0-.6-1.2-.6-1.7V109c0-1.75-1-1.6-2.3-2.1l-1.4-.76c-.5-.3-1.1-.8-1.6-.9-.6-.2-1.7.1-2.1-.33-.4-.5.2-1.9-.1-2.7-.3-.6-1-1.1-1.3-1.7-.2-.3-.6-1.8-.6-2.2l.2-1.3c-.1-.6-.6-1-.6-1.6 0-.7.7-.9 1.2-1.9.4-.8.8-2.1 1.5-2.8 1.1-1 2-.9 3.1-1.4.5-.2 1.3-1 2.6-1.4.5-.2 1.1-.2 1.6-.2 1.7-.2 3.8.8 4.7.9z" stroke-width=".16"/>
      <path d="M963.72 95.22l.77-.05 2.5.34c.4.2.6.5 1.1.6l.9.1c.3.1 1.2.7 1.5 1 .2.3.7 1.2.8 1.5 0 .4-.3.8 0 1 .3.3.7.1 1.1.4.4.2.5.6.8.9.4.5 1.2 1 1.1 1.8-.1 1-2 .6-2.4 1.5-.3.9 1.8.8 1.4 1.8-.3.8-1.5.7-2 .9l-1.5.8c-.3.2-.7.4-1.1.2-.7-.4-.5-1.2-.7-1.5-.1-.3-.4-.5-.7-.7-.2-.1-.5-.3-.8-.1-.4.2-1 1-1.1 1.5l-.5 2.8c-.1.4.1.9.1 1.3 0 .3 0 .6-.1.8-.4.1-.6.2-1.1-.1-.2-.5 0-.7.1-1.2 0-.6.1-1.7.1-2.4l-.1-.7-.1-.5-.2-.3c-.7-1-1.6.5-2 .7-.2.1-.5.1-.7.1-.3 0-.8-.1-1.1-.3-.3-.1-.6-.5-.9-.6-.5-.1-1.9 1.1-2.1 0v-.3c0-.5.1-1.1-.1-1.6-.4-.6-.5-.2-1.1-1.6l-.3-.6c-.1-.8 1.1-1.2 1.3-1.7.1-.3 0-.5 0-.8-.1-.3.1-1 .2-1.3.1-.3.4-.4.7-.8.2-.3.3-.7.7-.8.3-.1.7 0 1.2-.2.5-.3.6-.7 1.3-1 .8-.2 1.5.2 2.2.3z" stroke-width=".11"/>
    </g>
    <g stroke="#000">
      <path d="M953.6 113.4l-.05-14.48s1.2-.16 1.84-.93V59.6h-12.7V98c.6.76 1.8.92 1.8.92v14.27c2.1 1.8 6.9 1.4 9 .2z" stroke-width=".13" fill="#000"/>
      <path stroke-width=".13" fill="#000" d="M946.55 59.7l-.04-20.1h5.1v20.1h-5z"/>
      <path stroke-width=".13" fill="#000" d="M943.26 56.22v1.42h11.62V56.2l-11.62.02zm.06-4.04v1.42h11.62v-1.44l-11.62.02zm-.08-4.05v1.42h11.62V48.1l-11.62.03zm.1-4.06v1.42h11.63V44l-11.62.02zm-.08-4.12v1.42h11.62v-1.44l-11.62.02zm8.4-.37s3.14-.12 3.75-.55V38s-.2-.2-.7-.3v-.24h.6l.3-.25v-4.1h.4s.2-.1.3-.3v-5.4s-.3-.3-.6-.4v-3.6c-.4-.6-2.2-.9-3.4-1V22s1.1-.1 1.3-.3c0 0 .4-.36.4-.5v-2.5c-.1-.26-1.2-.7-2.2-.77H947c-1 .07-2.1.5-2.23.77v2.5c.04.13.4.47.4.47.2.23 1.26.3 1.26.3v.3c-1.2.16-3 .4-3.4 1.08V27c-.36.1-.64.5-.64.5v5.38c0 .2.3.3.3.3h.3v4.1l.2.28h.5v.26c-.6.1-.8.3-.8.3v1.04c.6.4 3.7.53 3.7.53h5.2z"/>
      <path stroke-width=".13" fill="#000" d="M943.62 56.2v-.28h-.7l-.1.4-.8.02-.17-.77v-.8l.15-.52.8-.02.2.27v1.17l.9.03.02.45-.3.04zm-.22-4.1v-.27h-.7l-.12.4-.8.03-.16-.77v-.8l.15-.6.8-.1.2.3v1.1h.9l.02.4h-.3zm.15-3.98v-.27h-.7l-.1.4-.8.02-.17-.77v-.8l.15-.52.8-.02.2.27v1.17l.9.03.03.45-.3.04zm1.17-4.08v-.27h-.7l-.1.4-.8.03-.16-.77v-.8l.14-.52h.8l.2.3v1.2l.92.1v.4l-.3.1zm9.38 5.98h-.96s-1.16.87-.04 2.06c.03-.04 1.25.06 1.25.06s1.06-1.28-.25-2.12zm.06 4.2h-.95s-1.1.87 0 2.07c0-.1 1.3 0 1.3 0s1.1-1.3-.2-2.1z"/>
      <path d="M954.15 46.17h-.77s-.93.88-.03 2.08c.02-.04 1 .05 1 .05s.86-1.28-.2-2.13z" stroke-width=".12" fill="#000"/>
      <path d="M953 42.77h-.68s-.84.87-.03 2.08c0-.04.9.06.9.06s.7-1.2-.2-2.1z" stroke-width=".11" fill="#000"/>
      <path d="M945.4 46.5h-.83s-1.02.88-.04 2.08c.02-.04 1.1.05 1.1.05s.94-1.28-.22-2.12z" stroke-width=".12" fill="#000"/>
      <path d="M945.68 50.42h-.95s-1.16.93-.04 2.2c0-.04 1.2.07 1.2.07s1-1.4-.3-2.3zm-.18 3.94h-.92s-1.1.87-.03 2.07c.02-.04 1.18.05 1.18.05s1-1.28-.24-2.12z" stroke-width=".13" fill="#000"/>
      <path stroke-width=".14" fill="#000" d="M947.24 7.67l3.66.05-.12 1.4h-3.57l.1-1.45z"/>
      <path stroke-width=".19" fill="#000" d="M950.64 10.56h-3.04v1.4h3l.04-1.4z"/>
      <path stroke-width=".2" fill="#000" d="M947.8 13.55h2.55v1.54h-2.55v-1.6zm.36 2.75H950v.85h-1.85v-.85z"/>
      <path stroke-width=".32" d="M948.04 17.96l-.87-10.23 3.78.06-.88 10.1h-2.03z"/>
      <path d="M949.15 7.6V.58" stroke-width=".31"/>
    </g>
    <path d="M915.3 112.64c-.17.6-.9 1.47-.97 1.52-5.12 4.1-18.65 4.8-26-.5-.3-.22-1.6-1.87-1.6-1.92-1.32-11.4-9.28-81.1 12.87-108.08-.16-.16 2.4-.16 2.4-.16 23.35 23.7 14.44 109 13.3 109.14z" stroke="#000" stroke-width=".16" fill="#000"/>
    <path d="M764.78 112.85v-2.35l.26-.27-.02-7.65s-.37-.47-.3-.55c-.02-.1-.02-.6-.02-.6h.38V94.3l-.36-.25v-.22h.36l-.36-.4v-.4l-.46-.27v-.35l.44-.3v-.4l.3-.2v-1.7h-.28l-.15-.2v-.2l.16-.2h1.38v1.3h.3v.2h.6v-.2h.8v.3h.5v.2h.4v.1l.3.1v-.9l.2-.4.2-.2h1.9v.2h2.2v-.2h2.1v.3h5.3v-.3h2v.3h5.3v-.3h2v.3h5.1v-.3h2.4v.3h1.9v-.3h-.3V89h-.2v-.43h.6v-3.3h-.4v-.9h.2v-7.9L799 76v-.4l.6-.22v-1l-.1-.04V74l.7-.47 1.1-.32h1.15v-2.9L802 70v-.5h.42v-.2h.2l-.03-.1h-.2l-.3-.2v-.2l.5-.3v-.6h.2c.3-3 2.1-8.9 7.5-10.8v-.4h.2v-.2s-.4.08-.4-.2c0-.07 0-.3.3-.4h.1V55h.2v-.5h.1v.4h.3V54h-.2v-.44h.3v-3.4l-.4-.33v-.25h.4v-1.1l.4.43v.5h.4v-1.9h-.4v-.3h.2v-1.1s.6-.8.9-.8V45l-.3-.15v-.14h.3v-.8h.2s-.2-.1-.2-.3v-.3s.1-.1.2-.1l.1-.1v-.2c-1-.5-.2-1.4 0-1.3V40l.1-.88.2.88.1 1.65c.2-.1.9.8 0 1.25v.2h.1c.1 0 .2.15.2.15v.3c-.1.15-.3.3-.3.3h.3v.8h.3v.13l-.3.15v.32c.3 0 .9.86.9.86v1.1h.2v.4h-.4v1.9h.3V49l.5-.4v1.04h.5v.26l-.4.33v3.3h.3V54h-.2v.74h.3v-.43h.1v.5h.1v.9h.13c.22.1.2.4.2.4-.1.3-.5.3-.5.3v.3h.2v.4c5.4 1.9 7.2 7.8 7.6 10.9h.2v.7l.5.3v.2l-.14.2h-.1v.2h.15v.2h.5v.5l-.4.3v3h1.2l1.1.4.7.5v.2l-.2.1v1l.6.3v.4l-.5.5v7.8h.12v.9h-.4V89h.6v.4h-.2v.5h-.3v.2h2.6v-.4h2.4v.4h5.2v-.36h2v.3h5.4v-.4h2V90h4.8v-.34h2.6v.3h10.3V88l-.3-.2v-1.3l.3-.2v-.45h-.3v-1.6h.9v-.6h.5l-.3-.4-.1-.2v-.4l.4.06V82h.2v-4.2l-.24-.13-.4-.14v-.6h.6V76h.2v-.63h.5v-.8h-.2v-.27h.2v-.34h.3v.33h.14v.2h-.1v.5h.2l.24-.5v-1.4h-.2v-.5h.3v-.5h.23v-.4h-.2v-.4h.2V71h.2v-.1h.2v-.6l.3-.4v-.8l.56-.83h.1s0-.5.3-.5v-.4c-.2 0-.3-.4 0-.5v-.3c-.4-.1-.4-.7.1-.7.4 0 .4.56.1.66v.4c.3.12.2.5 0 .53v.32c.2.05.3.5.3.5h.1l.5.9v.8l.3.4v.6h.2l-.06.15h.2v.3h.2v.35h-.2v.3h.2v.5h.32v.5h-.2v1.4l.3.4h.3v-.4h-.2v-.3h.2v-.33h.3v.4h.2v.27h-.2v.8h.46v.7h.1v.93h.66v.6l-.4.2-.2.2v4.2h.2v.5h.3l-.1.4-.2.2-.3.4h.46v.7h.9v1.54h-.3v.5l.3.1v1.2l-.3.2v1.5h1.2V89s-.2-.2-.2-.35V88s.1-.2.2-.24c-.08 0 0-1.3 0-1.3l.1-.15s-.1-.2.1-.2c0 0 .2 0 .12.3l.24.2v.4h-.1v.1h.2v1.2h-.1v3.1l.3.2v1h-.1v.6h-.2v5.7h.5v1h.3v.6h-.2v.3h-.5v1h.2v.7h-.2v.6h-.1v7.2h.3v.3h.2v.2h.13v2.4H765z" stroke="#000" stroke-width=".02" fill="#000"/>
    <g fill="#1A1A1A">
      <path d="M722.07 62.62c0 .37-.35.67-.8.67-.42 0-.77-.3-.77-.7 0-.4.35-.7.78-.7.44 0 .8.3.8.6z" fill-rule="nonzero"/>
      <path stroke="#1A1A1A" stroke-width="2.44" d="M721.2 62.13l.04-2.1.08 2.1h-.13z"/>
      <path d="M721.55 63.08c-.1.36.14 2.56.17 2.57 2.7.7 3.06 3.06 3.06 3.06l.73.1v1.4h-.7v10.2H718V70.2h-.74v-1.5h.7s.16-2.52 2.86-2.97c.03 0 .36-2.23.27-2.6l.5-.05z"/>
    </g>
    <g stroke="#000" fill="#000">
      <path d="M710.9 58.9c0 .38-.34.68-.78.68-.43 0-.78-.3-.78-.67 0-.3.35-.6.78-.6.44 0 .8.3.8.7z" stroke-width=".88" fill-rule="nonzero"/>
      <path stroke-width="2.44" d="M710.03 58.42l.05-2.1.08 2.1h-.13z"/>
      <path d="M710.4 59.37c-.1.36.13 2.56.17 2.57 2.7.7 3.05 3.06 3.05 3.06h.73v1.35h-.76l-.1 10.2h-6.8V66.42h-.7V65h.7s.1-2.53 2.8-2.98c0 0 .3-2.24.2-2.6l.5-.05z" stroke-width=".83"/>
    </g>
    <path d="M752.34 58.86c0 .37-.35.67-.78.67-.44 0-.8-.3-.8-.67 0-.36.36-.66.8-.66.43 0 .78.3.78.66z" stroke="#000" stroke-width=".88" fill="#000" fill-rule="nonzero"/>
    <path stroke="#000" stroke-width=".21" fill="#000" d="M751.46 58.37l.05-2.1.1 2.1z"/>
    <g fill="#1A1A1A">
      <path d="M742.54 62.4c0 .33-.34.6-.75.6-.5 0-.8-.27-.8-.6 0-.35.3-.62.7-.62.4 0 .7.27.7.6z" fill-rule="nonzero"/>
      <path stroke="#1A1A1A" stroke-width="2.32" d="M741.7 61.94l.04-1.94.08 1.94h-.12z"/>
      <path d="M742.04 62.8c-.1.34.14 2.36.17 2.37 2.6.63 3 2.82 3 2.82h.7v1.2h-.7v9.3h-6.5v-9.3h-.7V68h.7s.2-2.32 2.8-2.74c.1 0 .4-2.05.3-2.38l.6-.05z"/>
    </g>
    <path d="M751.84 59.43c-.1.36.14 2.56.17 2.57 2.7.7 3.1 3.07 3.1 3.07h.8v1.34h-.7l-.1 10.2h-6.8V66.5h-.7v-1.44h.7s.2-2.53 2.9-2.98c.1 0 .4-2.23.3-2.6l.6-.05z" stroke="#000" stroke-width=".07" fill="#000"/>
    <path d="M761.9 76.94v-1.47c-.2-.13-1.27-.22-1.27-.22v1.84l-1.14-.2-.1-1.8c-.7-.1-1-.2-1.7-.2v1.6l-1.2-.2V75c-.9-.03-1.6-.03-1.6-.03v1.55h-3.4v-1.66H749l.03 1.67h-1.56v-1.66h-2.4v1.68h-1.58V74.9H741v1.66h-1.5V74.9h-2.44l.06 1.67h-1.55v-1.65h-2.47v1.67h-1.53v-1.7h-2.44v1.6h-1.5v-1.6h-2.46l.06 1.6h-1.55v-1.6h-2.4v1.6H720v-1.6h-2.43v1.6h-1.55V75h-9.3l.07 27.3 45.2-.15s9.3-.13 9.8-1.27V76.92z" stroke="#000" stroke-width=".07" fill="#000"/>
    <path d="M703.75 107.52v-2.95s-.6-.1-.55-.32c.03-.22.36-.06.45-.33.32-.85-.15-1.48-.98-1.5-.92 0-1.34.65-1.02 1.5.1.28.42.12.46.34.1.22-.5.3-.5.3v2.97h2.2z" stroke="#000" stroke-width=".24" fill="#000"/>
    <path d="M527.98 99.52c-2.24 2.3-20.6 3.97-25.04.3.02 0-.87-2.53-.87-2.53s-1.3-.3-1.4-.6l-.2-1.8s-1.65-.1-1.85-.4l-.2-3.3s-1.17-.1-1.34-.3V89s-.9.1-1.22-.23c-.03 0-.06-2.7-.06-2.7s-.66.1-.9-.2c-.02-.1-.04-2.6-.04-2.6-.8-.06-.7-.4-.7-.4l.1-2.37c-.26-.03-.6-.33-.57-.45l.1-2.4c-.4-.18-.5-.6-.5-.67l.2-2.15s0 .07-.3-.1c-.1-.1.1-1.8.3-1.84.4-.5 0 .1-.3-.6-.1-.2.3-2.4.7-2.6.2-.1 3.3-.6 4.9-.7h3.9s6.6.7 9.4 2.3c-.2-.2 4.8 2.6 5.5 3.1 0 0 5.8 4.6 7.6 8.2 0-.1 2.2 4 2.6 5.7 0-.1.7 2 1.1 3.9.2 1.1.3 1.9.4 2.6 0 0-1.6.9-1.8.8l-.1 2.6v.3l-.1.9z" fill="#0E0E0E"/>
    <g fill="#0D0D0D">
      <path d="M472.15 107.66s-17.27.6-18.05.1c-.1.04-1.58 1.48-2.2 2.75h-.78s.6-1.8.47-2.3c-.1.1-3-.6-3.9-.7 0 .1-.8.2-1.2 2.7 0-.1-.8 0-.8 0s0-2.6-.9-2.9c0 0-10.5-1.5-14-2.3 0 0-2.5 1-3.3 2l-.4-.1s2-2.3 2-3c-.1 0 0-.7-1.2-.5-.1 0-3 2-3.4 2.5l-.3-.2s1.8-3.1 1.1-3.8c0 0-1.7-2.1-2.8-1.9l-4.4 1.4v-.3s2.1-1.2 2-1.3c0 0-2.2.5-2.2.7v-.2l3.6-3.1c.3-.3 5-3.6 11.8-6.8.7-.3 9.6-5.4 26.8-5.5-.1 0 19.3-1.1 35.9 12.4 0 0 1.3 1.5 2.3 2.4 0 .2-.2.1-.2.1s-2.9-1.4-3.5-.4c0 0-.7 1.6-.1 2.8.6 1.2 1.8 3 1.8 3l-.2.1s-2.7-3-3.9-2.7c.1.1-1.3.2 1.9 3.5l-.2.2s-3-2.4-4.1-2.2c-1 .2-10.3 2.7-10.3 2.7s-.8 1.8-.3 3.1l-.5.2s-1.2-2.6-1.6-2.6c-.9.1-3.4.8-3.4.8s.4 1.9.8 2.4c-.6 0-.6.1-.6.1s-2.1-2.2-2.5-2.2zm-38.2-17.8l-3.7-13.7-.16-2.7 1.3 2.6 4 13-1.5.8"/>
      <path d="M432.2 78.2l-.27-3.68 1.33 2.92 3.02 11.65-.96.3-3.12-11.2m6.3 9.5l-2.45-12.1-.22-2.8 1 2.6 3.03 11.8-1.37.3m5.9-1.4l-1.2-7.7V75l1.1 3.4 1.2 7.85h-1.3m2.5-.7l-1-10.04.1-2.8.8 3.2 1.2 9.7-1.1.1m10.5-.8l.1-9.6.4-2.8.5 2.7.1 9.7h-1.2m3.3-.3l.1-5.2.7-3.8.6 4.1-.1 5.1-1.5-.1m7.5.5l1-9.2.7-2.9.2 3.3-1 9.1-1-.2m7.9 1.6l1.7-7.9 1.3-3.6-.4 4-1.5 8-1.2-.5m2.2.7l2.3-10.9.2-3.1-1.1 3.2-2.2 10.5.9.3m5 1.8l3.5-11.6 1.3-2.7-.3 3.4-3.1 11.7-1.4-.8"/>
    </g>
    <g stroke="#000">
      <path fill="#000" d="M553 66.46l.53.02.45-2.5.2-.9-.3-.02-.02-.2h.38l.3-1.82.13-1 .12 1.03.3 1.8h.3v.2l-.3-.02.8 5.2v36.02h-11.2V68.24l.8-5.28-.3.02v-.17h.2l.2-1.4.2-1.2v1.2l.2 1.4h.3v.2l-.2.1.3 1.1.8 2.5h.5l2.4-8.3 2.5 8.3zm69.72-.04h.7l.47-2.5.2-.92-.3-.02-.1-.2h.3l.3-1.8.1-1 .1 1 .3 1.8h.3V63l-.3-.03.8 5.2v36.03h-11.2V68.16l.9-5.3-.3.03v-.2h.3l.2-1.4.1-1.2.1 1.2.2 1.3h.3v.1h-.2l.2 1 .7 2.6h.6l2.3-8.5 2.3 8.4z"/>
      <path d="M614.68 74.14h-26.73v-.5s.16-1.03-.48-.97c.02 0-.6-.1-.53.84h-1.3l-.02-.8s.9-1-.3-1.4c-.6.3-.6.8-.25 1.4.17.3.07.7.06.9h-1.32s.1-.8-.3-.8c0 0-.8-.2-.6 1.2h-27v4H616v-3.7h-1.32z" fill="#000"/>
      <path d="M545.63 78.1c-17.2 17-25.8 24.9-47.8 25.57 0 0-17.2.98-26.87-6.3v.05" stroke-width="3.3"/>
      <path d="M545.36 77.2s-24.5 22.56-47.6 25.15c0 0-12 1-27.13-6.5" stroke-width="3.3"/>
      <path d="M539.05 82.53l-1.83 3.82m-.94-2.05l3.73-.23m-3.2.37l-1.3 3.33.2-.1m-5.7 1.78l3.9-.28m-4.6.73l-3.5 5.63m-.7-2.88l5.2.28m-5.9-.1l-3.5 5.83m-.3-3.82l4.6 1.73m-5.4-1.17l-3.6 5.33m-.2-3.6l4.7 2.03m-5-1.7l-3.9 4.65m-.1-2.9l4.2 1.8m-5.6-1.2l-3.1 3.4m-.3-2.3l3.6 1.6m-4.8-1.1c-.1 0-2.9 2.2-2.9 2.2m-.2-1.7l3.1 1.5m-3.9-1l-2.2 1.6"/>
      <path d="M498.32 102.48l3.17 1.33m37.2-19v21.7M534 86.2v20.4m-4.7-17.5v17.45m-4.8-14.26v14.1m-4.84-11.5v11.5m-4.48-9.6v9.5l.1-.1m-4.85-7.5v7.6m-4.5-6.1v6.1m-4.76-4.8v4.8" stroke-width="2"/>
      <path d="M534.35 86.2l3.47-.22m-4.8 1.08l-2.85 5.14"/>
      <path d="M492.3 106.28v-4.22m-4.93 4.22v-4.84m-4.67 4.76v-5.84m-4.7 5.68v-7.06h.13m-4.67 6.87v-8.72" stroke-width="2"/>
      <path d="M492.47 103.32l3.67-.83m-3.64-.5l3.92 1.7m-8.87-.8l5.1-.7m-5.03-.9l4.8 2.3v-.1m-9.66-1.5l4.48-.8m-4.4-1.1l4.3 2.7m-9.04-2l4.54-.9m-4.5-1.4l4.47 3.4m-9-3l4.4-.4m-4.3-1.8l4.2 3.8"/>
      <path d="M624.77 78.2c17.2 17 25.8 24.9 47.8 25.57 0 0 17.2.98 26.87-6.3" stroke-width="3.3"/>
      <path d="M625.04 77.32s24.5 22.54 47.6 25.14c0 0 12 1 27.13-6.52" stroke-width="3.3"/>
      <path d="M631.35 82.63l1.84 3.82m.9-2.05l-3.8-.23m3.2.37l1.3 3.33-.2-.1m5.7 1.78l-3.9-.28m4.6.73l3.6 5.63m.7-2.88l-5.3.28m5.9-.1l3.5 5.83m.3-3.82l-4.6 1.73m5.4-1.17l3.6 5.33m.2-3.6l-4.6 2.03m5.1-1.7l3.9 4.66m.1-3l-4.2 1.8m5.6-1.18l3.1 3.36m.3-2.34l-3.6 1.57m4.9-1.08c.1 0 2.8 2.22 2.8 2.22m.2-1.7l-3.1 1.46m3.9-1.05l2.2 1.6"/>
      <path d="M672.1 102.6l-3.2 1.3m-37.25-19.07v21.64m4.65-20.27v20.4m4.68-17.52v17.48m4.8-14.26v14.17m4.84-11.53v11.53m4.48-9.57v9.5l-.12-.06m4.85-7.44v7.57m4.54-5.97v6.1m4.73-4.82v4.87" stroke-width="2"/>
      <path d="M636.05 86.3l-3.47-.22m4.8 1.08l2.85 5.15"/>
      <path d="M678.1 106.38v-4.22m4.94 4.22v-4.84m4.66 4.76v-5.83m4.7 5.67v-7.06h-.13m4.67 6.87v-8.72" stroke-width="2"/>
      <path d="M677.93 103.42l-3.67-.83m3.64-.5l-3.92 1.7m8.87-.8l-5.1-.7m5.05-.9l-4.8 2.3v-.1m9.64-1.5l-4.48-.8m4.42-1.1l-4.3 2.8m9.02-2l-4.54-.9m4.5-1.4l-4.46 3.4m9.08-3l-4.36-.4m4.23-1.9l-4.15 3.9"/>
      <path d="M706.28 95.97l15.7 9.4m-16.34-8.87l14.88 9.1" stroke-width="2.14"/>
      <path d="M498.32 106.78v-2.95s-.6-.1-.56-.3c.03-.23.36-.07.46-.34.32-.9-.15-1.5-1-1.5-.92 0-1.34.6-1.02 1.5.1.2.43.1.46.3.03.2-.55.3-.55.3v2.9h2.3zm175.9-.02v-2.94s-.6-.1-.55-.32c.04-.2.37-.06.46-.32.32-.86-.15-1.48-1-1.5-.92 0-1.33.65-1.02 1.5.1.27.5.1.5.33.1.3-.5.4-.5.4v3h2.3z" fill="#000"/>
      <path d="M463.55 106.8h78.02v-.43l-78.03-.15v.58zm0-2.66h78.16v1.47h-78.1v-1.4z" stroke-width=".9" fill="#000"/>
      <path d="M628.97 104.23h139.4v1.52H628.84l.14-1.52zm139.2 2.17l-139.73-.06v.5h139.73v-.45z" fill="#000"/>
      <path fill="#000" d="M611.26 104.16h18.26v10.23h-18.35zm-69.96 0h18.27v10.23H541.2z"/>
      <path fill="#000" d="M557.98 105l23.5-11.6.7 1.37-23.5 11.6-.7-1.37z"/>
      <path d="M558.12 111.95c.02 0 14.28-11.7 23.72-16.48l.66-.33" stroke-width="3"/>
      <path stroke-width="2.9" d="M560.62 109.82l-2.28-3.92 4.28 1.65-1.4-2.83 4.07.96-1.4-2.73 3.7.95-1.2-2.33 3.5.68-1-1.9 2.9.4-.9-1.42 2.7.26-.7-1.3 2.3.1-.6-1.1 2.1.1-.8-1.6"/>
      <path fill="#000" d="M612.48 104.8l-23.5-11.62-.7 1.38 23.52 11.6.68-1.37z"/>
      <path d="M612.35 111.74c-.02 0-14.28-11.7-23.73-16.48l-.65-.34" stroke-width="3"/>
      <path stroke-width="2.9" d="M609.85 109.6l2.28-3.9-4.28 1.64 1.4-2.83-4.07 1 1.36-2.7-3.77 1 1.12-2.3-3.6.7.9-1.8-3 .4.8-1.4-2.7.3.7-1.2-2.4.2.5-1-2.2.1.7-1.5"/>
      <path d="M467.17 83.82c.1-.04.16-.14.16-.24 0-.14-.1-.25-.24-.25-.2 0-.3.1-.3.25 0 .1 0 .2.1.24v1.4h-.4v.26h.1s0 .4-.1.7c-1.1 2.65-2 2.97-2 2.97h-1.2l-.5 1.05v3.63h-.6v.82h.6v8.5l-.7 1.76v8.8h9.3v-8.8l-.7-1.7v-8.4h.6V94h-.6l-.1-3.7-.5-1-1-.05s-.9-.5-2-3c-.1-.47 0-.7 0-.7h.1v-.25h-.4l-.1-1.38zm235.93 0c.07-.04.14-.14.14-.24 0-.14-.1-.25-.24-.25-.13 0-.23.1-.23.25 0 .1.06.2.16.24l-.02 1.4h-.4v.26h.2s.1.4 0 .7c-1 2.65-2 2.97-2 2.97h-1.1l-.6 1.05v3.63h-.6v.82h.7v8.5l-.7 1.76.1 8.8h9.4v-8.8l-.7-1.7v-8.4h.6V94h-.6v-3.7l-.5-1-1-.05s-.8-.5-2-3v-.7h.2v-.25h-.4v-1.38z" stroke-width=".21" fill="#000"/>
    </g>
    <path d="M415.4 94.5h11v-1.6h-1.1v-1.32h-1.24v-3l-.76-.46v-4.37l.72-.5v-.53l-.8-.5v-.44l.02-.33s.02-.28-.24-.3c0 0 .16-.46-.2-.62.04 0-.24-30.23-.24-30.23s-.2-.15-.32-.2c.06-.02.34-2.5 1.03-3.07v-.1l-.14-.02v-.1l.17-.1v-.1s-.68 0-.8-.3c-.02 0-.3-1.4-.97-1.5h-1.08c-.56.1-.95 1.6-.96 1.6-.2.3-.8.3-.8.3v.2l.1.1v.1h-.2v.1c.7.6.9 3.1 1 3.1l-.3.2-.3 30.2c-.4.2-.2.6-.2.7-.3 0-.3.3-.3.3v.8l-.8.5v.5l.7.6v4.4l-.8.5v3h-1.3v1h-1.1v1.6h11M420 44.9h-1s.3-.4.33-.64c.04-.3.36-.3.4-.5 0 0 .27-1.7.4-1.8.1-.1-.1-.1-.1-.1s-.1.2-.2.2-.2-.5-.2-.5v-.6l.06-.1v-.2l.3-.1s.1 0 .2.1c0 0 .1-.2.2-.1.1 0 0-.4 0-.4h-.3s.2-1 .6-1.06V39c0-.04.1 0 .1 0v.2s.2.1.3.24c0-.03.1.28.1.28h.1v.2l-.3.05h-.1v.4l.2.1v.1h.3s.1.2.1.4.1.5.1.5l.1.3.1.3h.2v.2l-.2.1-.5 2-.1-.1.5-2.06h-.2c-.1-.1-.3-.6-.3-.7h-.1v.3h.1V43l-.2.6-.2.1s-.1.2 0 .2c0 .07.3.1.3.48-.1 0-1.5.2-1.5.17z" stroke="#000" stroke-width=".07" fill="#000"/>
    <path d="M372.12 26.77c0 1.3-1.05 2.33-2.33 2.33-1.3 0-2.4-1.04-2.4-2.33 0-1.3 1-2.34 2.3-2.34 1.2 0 2.3 1.05 2.3 2.34zm-8.96 1.73c0 1.3-1.04 2.34-2.33 2.34-1.3 0-2.34-1.04-2.34-2.33 0-1.2 1-2.3 2.3-2.3 1.3 0 2.3 1.1 2.3 2.4zm-7.2 2.8c0 1.3-1.04 2.34-2.33 2.34-1.28 0-2.33-1.04-2.33-2.33 0-1.2 1.05-2.3 2.33-2.3 1.3 0 2.34 1.1 2.34 2.4zm-6.7 4.3c0 1.3-1.04 2.33-2.33 2.33-1.28 0-2.33-1.04-2.33-2.33 0-1.3 1.05-2.34 2.33-2.34 1.3 0 2.34 1.05 2.34 2.34zm-5.5 5.33c0 1.3-1.03 2.33-2.32 2.33-1.3 0-2.33-1.04-2.33-2.33 0-1.3 1.1-2.34 2.4-2.34 1.3 0 2.4 1 2.4 2.3zm-4.43 6.32c0 1.3-1.05 2.33-2.34 2.33-1.3 0-2.4-1.04-2.4-2.33 0-1.3 1-2.34 2.3-2.34s2.3 1.1 2.3 2.4zm-3.3 7.25c0 1.3-1.04 2.34-2.33 2.34-1.3 0-2.33-1.05-2.33-2.34 0-1.3 1.04-2.33 2.33-2.33 1.3 0 2.33 1.04 2.33 2.33zm-1.76 7.7c0 1.3-1.04 2.33-2.33 2.33-1.3 0-2.33-1.04-2.33-2.33 0-1.3 1.1-2.34 2.4-2.34 1.3 0 2.4 1.05 2.4 2.34zm-.54 7.8c0 1.3-1.05 2.34-2.34 2.34-1.3 0-2.4-1.05-2.4-2.34 0-1.3 1-2.33 2.3-2.33 1.3 0 2.3 1.04 2.3 2.33zm1.3 8.03c0 1.3-1.03 2.33-2.32 2.33-1.2 0-2.3-1.04-2.3-2.33 0-1.3 1.1-2.34 2.4-2.34 1.3 0 2.4 1 2.4 2.3zm2.54 7.47c0 1.3-1.05 2.34-2.33 2.34-1.3 0-2.34-1.05-2.34-2.34 0-1.3 1.05-2.33 2.34-2.33 1.28 0 2.33 1.04 2.33 2.33zm4.23 7.37c0 1.3-1.05 2.33-2.33 2.33-1.3 0-2.34-1.04-2.34-2.33 0-1.3 1.05-2.34 2.34-2.34 1.28 0 2.33 1.05 2.33 2.34zm6.3 6.6c0 1.3-1.03 2.33-2.32 2.33-1.3 0-2.33-1.05-2.33-2.34 0-1.3 1.04-2.33 2.33-2.33 1.3 0 2.33 1.04 2.33 2.33zm7.1 5c0 1.3-1.05 2.33-2.34 2.33-1.28 0-2.33-1.05-2.33-2.34 0-1.3 1.05-2.33 2.33-2.33 1.3 0 2.34 1.04 2.34 2.33zm9.25 3.57c0 1.3-1.05 2.33-2.33 2.33-1.3 0-2.34-1.04-2.34-2.33 0-1.3 1.05-2.34 2.34-2.34 1.28 0 2.33 1.05 2.33 2.34zm10.6.86c0 1.3-1.04 2.35-2.33 2.35-1.3 0-2.33-1.05-2.33-2.34 0-1.2 1-2.3 2.3-2.3 1.3 0 2.3 1.1 2.3 2.4zm9.23-.5c0 1.28-1.05 2.33-2.34 2.33-1.3 0-2.33-1.05-2.33-2.34 0-1.3 1.1-2.4 2.4-2.4 1.3 0 2.4 1 2.4 2.3zm9.7-3.22c0 1.3-1.06 2.33-2.34 2.33-1.3 0-2.34-1-2.34-2.3 0-1.3 1.05-2.3 2.34-2.3 1.28 0 2.33 1.1 2.33 2.4zm8.06-5.33c0 1.3-1.04 2.33-2.33 2.33-1.2 0-2.3-1.04-2.3-2.33 0-1.3 1.1-2.34 2.4-2.34 1.3 0 2.4 1.1 2.4 2.4zm6.04-6.43c0 1.3-1.04 2.33-2.33 2.33-1.3 0-2.33-1.04-2.33-2.33 0-1.3 1.04-2.34 2.33-2.34 1.3 0 2.33 1.05 2.33 2.34zm4.45-7.1c0 1.3-1.04 2.34-2.33 2.34-1.3 0-2.34-1.04-2.34-2.33 0-1.3 1.05-2.34 2.34-2.34 1.3 0 2.33 1 2.33 2.3zm2.8-7.8c0 1.3-1.04 2.34-2.33 2.34-1.3 0-2.33-1.05-2.33-2.34 0-1.3 1.04-2.33 2.33-2.33 1.3 0 2.33 1 2.33 2.3zm1.37-7.8c0 1.3-1.04 2.33-2.33 2.33-1.3 0-2.33-1.04-2.33-2.33 0-1.3 1.04-2.34 2.33-2.34 1.3 0 2.33 1.05 2.33 2.34zm-.16-8.08c0 1.3-1.05 2.33-2.33 2.33s-2.3-1.04-2.3-2.33c0-1.3 1.1-2.34 2.4-2.34 1.3 0 2.4 1.05 2.4 2.34zm-1.92-8.14c0 1.3-1.05 2.34-2.34 2.34-1.28 0-2.33-1.05-2.33-2.34 0-1.3 1.05-2.33 2.33-2.33 1.3 0 2.34 1.04 2.34 2.33zm-3.08-6.8c0 1.28-1.04 2.32-2.33 2.32-1.2 0-2.3-1.04-2.3-2.33 0-1.3 1.1-2.4 2.4-2.4 1.3 0 2.4 1 2.4 2.3zm-4.78-6.72c0 1.3-1.04 2.34-2.33 2.34-1.3 0-2.33-1.05-2.33-2.34 0-1.3 1.04-2.33 2.33-2.33 1.3 0 2.33 1.04 2.33 2.33zm-5.38-5.28c0 1.3-1.04 2.34-2.33 2.34-1.3 0-2.33-1.04-2.33-2.33 0-1.2 1.04-2.3 2.33-2.3 1.3 0 2.33 1.1 2.33 2.4zm-6.7-4.34c0 1.3-1.04 2.34-2.33 2.34-1.3 0-2.33-1.05-2.33-2.34 0-1.28 1.04-2.33 2.33-2.33 1.3 0 2.33 1.05 2.33 2.33zm-7.25-2.96c0 1.3-1.04 2.33-2.33 2.33-1.3 0-2.33-1.04-2.33-2.33 0-1.3 1.04-2.34 2.33-2.34 1.3 0 2.33 1.05 2.33 2.34zm-7.36-1.5c0 1.3-1.04 2.35-2.33 2.35-1.3 0-2.33-1.05-2.33-2.34 0-1.2 1.1-2.3 2.4-2.3 1.3 0 2.4 1.1 2.4 2.4z" fill="#000" fill-rule="nonzero"/>
    <path d="M406.1 67.6c0 18.66-15.12 33.8-33.78 33.8-18.66 0-33.78-15.14-33.78-33.8 0-18.7 15.12-33.82 33.78-33.82 18.66 0 33.78 15.13 33.78 33.8z" stroke="#000" stroke-width=".9"/>
    <path d="M411.6 67.82c0 21.42-17.36 38.78-38.76 38.78S334.1 89.24 334.1 67.82c0-21.4 17.35-38.77 38.74-38.77 21.4 0 38.75 17.36 38.75 38.77z" stroke="#000" stroke-width="2.83"/>
    <path stroke="#000" stroke-width=".31" d="M360.1 36.03l-3.5-3 .26 4.55-3.37-2.8.2 4.36-3.2-2.64.6 4.4-3.4-2 1.1 3.9-4.3-1.14 1.8 3.54-4-.82 2.1 3.62-4.5-.62 2.6 3.42h-4.2l2.7 2.33-4.1.74 2.8 2.3-4.2 1.27 3 2.45-3.6 1.8 3.3 1.6-4.2 2.2 3.2.6-3.4 3 3.8.4-3.4 3.2 4.2.2-3.6 3.3 4.2-.1-3.3 3.1 4.6.1-3.1 3.1 4.2-.5-2.9 4.2 4.6-1.5-2.6 4.8 4.4-2-1.6 5.6 4.4-2.6-1.3 5.7 4.5-2.9-.8 5.6 4-3.2-.4 5.9 3.9-4 .7 5.7 3.6-4.1 1 5.7 3.1-4.6 1.6 5.4 2.4-5.1 2.6 5.4 1.6-5.4 2.6 5 1.5-5.6 3.3 4.6.7-5.5 3.8 4.2.2-5.7 4 3.9-.3-6.1 4.3 3.4-.9-5.6 4 3-1.1-5.9 4.5 2.3-1.6-5.7 4.7 1.9-2.5-5 4.9 1.5-3.3-5.1 5.2.5-3.8-4 4.6-.2-3.9-3.5 4.9-1.3-4.4-3 4.6-1.2-4.3-2.2 4.3-1.2-4.8-1.7 4.3-2.7-5.2-.4 3.9-2.9h-4l4.2-2.9-5.4.1 3.5-3.7-5 1.2 3.4-3.9-4.9.5 2.3-4.5L398 45l1.8-5.1-4 2.95 1.2-5.2-4 3.05.28-5.7-3.36 3.5-.68-5.73-4 3.14-.8-5.1-3.1 3.9-.65-4.8-2.9 4.3-1.5-4.8-1.7 4.2-2.1-4.7-1.5 4.7-2.9-4.1-.4 4.4-3.7-3.7-.2 4.7-3.4-3.4-.5 4.6z"/>
    <path d="M375.4 66.73c0 1.44-1.18 2.6-2.62 2.6-1.43 0-2.6-1.16-2.6-2.6 0-1.44 1.17-2.6 2.6-2.6 1.44 0 2.6 1.16 2.6 2.6z" stroke="#000" stroke-width=".9" fill="#000" fill-rule="nonzero"/>
    <path d="M371.64 68.96h.83s-1.22 11.68-4.84 44.8l-4.22-.07m10-44.8h-.8s1.8 14 5.4 44.9l3.9-.3" stroke="#000" stroke-width=".35" fill="#000"/>
    <path stroke="#000" stroke-width=".12" fill="#0F0F0F" d="M327.77 101.76V65.7h.7v-8.85h-1.35V55.4h-.62l-1.84-3v-2.77l-2-6.24v-1.2 1.1l-2.15 6.2v2.7l-1.8 3h-.6v1.4h-1.3v8.8h.7v36h10.4z"/>
    <path d="M325.47 61.08c0 1.73-1.4 3.13-3.14 3.13-1.74 0-3.14-1.4-3.14-3.1 0-1.7 1.4-3.1 3.1-3.1s3.1 1.4 3.1 3.1z" fill="#FFF" fill-rule="nonzero"/>
    <path fill="#0F0F0F" d="M306.08 85.5l16.97-.06v16.32l-17 .05.03-16.3M112.96 54.1l-2.4 3.65-.12-12-1.53-2.3-1.9 2.2v55.65l19.8-7.1v7.12l.1-55.4-1.6-2.7-1.9 2.5v12L121 54.1h-2.16l-.04-3.48-1.9-3-1.9 3.08V54h-2"/>
    <path d="M206.78 95.14V79.3l-1.97-5.5v-4.44s-3.3-8.08-3.4-13.7c0-.2 0-.2-.1 0-.1 5.62-3.4 13.7-3.4 13.7v4.44l-1.9 4.34v17" stroke="#000" stroke-width=".02" fill="#0E0E0E"/>
    <path stroke="#000" stroke-width=".21" fill="#000" d="M178.24 113.77h-11.36V77.9l1.47-3.33 1.15 3.3.02 3.4h6.22v-3.7l1.22-3 1.27 3.06v36.14zm57.46.03h-11.37V77.9l1.48-3.3 1.2 3.3v3.38h6.3v-3.7l1.3-2.98 1.3 3.05v36.14z"/>
    <g stroke="#000" fill="#000">
      <path d="M116.6 113.77h-11.4v-35.9l1.48-3.3 1.15 3.3.02 3.4h6.22v-3.7l1.2-3 1.27 3.06.02 36.14zm-18.62 0l-11.37.02V77.9l1.5-3.33 1.2 3.3v3.4h6.2v-3.7l1.2-3 1.3 3.06.1 36.14z"/>
      <path d="M99.78 87.38l.03.27c.4.18.4.65.4.65v2.84h-.7V88.3s.1-.47.4-.65v-.27h.1z" stroke-width=".23"/>
      <path stroke-width="1.86" d="M90.96 91.26h21.53l-.5 22.42H90.8l.16-22.42z"/>
      <path d="M103.72 87.38l.04.27c.3.18.34.65.33.65l-.1 2.84h-.8V88.3s0-.47.3-.65v-.27z" stroke-width=".23"/>
    </g>
    <g stroke="#000" fill="#000">
      <path d="M316.02 113.78h-11.36v-35.9l1.48-3.3 1.15 3.3v3.4h6.2v-3.7l1.2-3 1.2 3.06v36.14zm-18.62 0h-11.35V77.9l1.47-3.32 1.16 3.3v3.4h6.23v-3.7l1.3-3 1.3 3.06v36.14z"/>
      <path d="M299.22 87.4l.03.25c.3.2.34.66.33.66v2.9h-.74v-2.9c-.02 0 0-.4.32-.6l.02-.2h.04z" stroke-width=".23"/>
      <path stroke-width="1.84" d="M290.68 91.27h20.96l-.48 22.43h-20.64l.16-22.43z"/>
      <path d="M303.16 87.4l.03.25c.3.2.3.66.3.66v2.9h-.8v-2.9s0-.4.3-.6v-.2z" stroke-width=".23"/>
    </g>
    <g stroke="#000" fill="#000">
      <path d="M119.9 90.38l.03.27c.3.2.33.65.33.66v2.9h-.75v-2.8s.1-.4.4-.6v-.2h.1zm4.32 0l.04.27c.3.2.33.65.33.66l-.1 2.9h-.8v-2.8s0-.4.3-.6v-.2zm4.42 0l.03.27c.3.2.34.65.33.66v2.9h-.74v-2.8c-.02 0 0-.4.32-.6l.02-.2h.04zm4.32 0l.04.27c.3.2.34.65.33.66v2.9h-.74l-.1-2.8s0-.4.3-.6v-.2zm4.4.08l.02.26c.3.2.34.66.33.66v2.84h-.7v-2.84s.1-.47.4-.66v-.26h.1zm4.32 0l.03.26c.4.2.4.66.4.66v2.84h-.7v-2.84s0-.47.4-.66v-.26h.1zm4.42 0l.03.26c.3.2.34.66.33.66v2.84h-.75v-2.84s.1-.47.4-.66l.1-.26h.1zm4.32 0l.04.26c.3.2.33.66.33.66l-.1 2.84h-.7v-2.84s0-.47.3-.66v-.26zm4.6-.16l.03.27c.3.2.34.66.33.66v2.84h-.74v-2.84c-.02 0 .02-.47.32-.66l.02-.26h.04zm4.4 0l.05.27c.3.2.34.66.33.66v2.84h-.75v-2.84s.02-.47.33-.66l.02-.26h.03zm4.34 0l.04.27c.3.2.33.66.33.66v2.84h-.75v-2.84s.02-.47.32-.66l.02-.26h.04z" stroke-width=".23"/>
      <path stroke-width="1.15" d="M108.44 94.05h66.62v19.7l-66.87.02.2-19.72z"/>
    </g>
    <g stroke="#000" fill="#000">
      <path d="M238.66 90.4l.03.27c.3.2.3.65.3.66v2.83h-.8v-2.84s0-.47.3-.65v-.27zm4.38 0l.04.27c.3.2.34.65.33.66v2.83h-.7v-2.84s0-.47.3-.65v-.27h.1zm4.46 0l.05.27c.3.2.34.65.33.66v2.83h-.75v-2.84c-.02 0 0-.47.32-.65l.02-.27h.04zm4.4 0l.03.27c.3.2.34.65.33.66v2.83h-.75v-2.84s.1-.47.4-.65l.1-.27h.1zm4.43.07l.04.27c.3.2.34.66.33.66v2.84h-.75V91.4c-.02 0 .02-.47.32-.66l.03-.27h.03zm4.4 0l.02.27c.3.2.34.66.34.66l-.1 2.84h-.8V91.4s0-.47.3-.66v-.27zm4.47 0l.02.27c.3.2.34.66.34.66v2.84h-.76V91.4c-.02 0 .02-.47.33-.66l.02-.27h.04zm4.37 0l.03.27c.3.2.35.66.34.66v2.84h-.76V91.4s.02-.47.33-.66l.1-.27h.1zm4.65-.14l.04.26c.3.1.34.6.33.6l-.1 2.8h-.8v-2.8s0-.5.3-.7v-.3zm4.48 0l.03.26c.3.1.34.6.33.6V94h-.75v-2.8s.1-.46.4-.65v-.27h.1zm4.38 0l.03.26c.4.1.4.6.4.6V94h-.7v-2.8s0-.46.4-.65v-.27h.1z" stroke-width=".24"/>
      <path stroke-width="1.14" d="M228.05 94.06h65.47v19.72h-65.7l.23-19.72z"/>
    </g>
    <g stroke="#000" fill="#000">
      <path d="M180.93 87.74l.03.27c.3.2.34.7.33.7l-.1 2.9h-.8v-2.9s0-.4.3-.6v-.2zm4.53 0l.04.26c.3.2.33.65.33.66v2.83h-.75v-2.9s.02-.5.32-.7l.02-.3h.04zm4.44 0l.02.26c.3.2.34.65.34.66v2.83h-.75v-2.9s.1-.5.4-.7v-.3h.1zm4.52 0l.04.26c.3.2.34.65.33.66l-.1 2.83h-.7v-2.9s0-.5.3-.7v-.3zm4.46 0l.03.26c.4.2.4.65.4.66v2.83h-.7v-2.9s.1-.5.4-.7v-.3h.1zm4.45 0l.04.26c.3.2.33.65.33.66v2.83h-.75v-2.9s.02-.5.32-.7l.02-.3zm4.35 0l.04.26c.3.2.33.65.33.66v2.83h-.75v-2.9c-.02 0 .02-.5.32-.7l.02-.3h.04zm4.48 0l.04.26c.3.2.33.65.33.66v2.83h-.75v-2.9s.02-.5.32-.7l.02-.3h.04zm4.5 0l.04.26c.3.2.34.65.33.66v2.83h-.74l-.1-2.9s0-.5.3-.7v-.3zm4.54 0l.03.26c.3.2.34.65.33.66v2.83h-.74v-2.9c-.02 0 .02-.5.32-.7l.02-.3h.04z" stroke-width=".23"/>
      <path stroke-width="1.16" d="M170.4 91.54h61.9v22.23h-62.17l.27-22.23z"/>
    </g>
  </g>
</svg>
